<?xml version="1.0" encoding="UTF-8"?>
<svg version="1.1" xmlns="http://www.w3.org/2000/svg" width="492" height="466">
<path d="M0 0 C12.14092899 4.06196513 22.17320947 11.55178044 30.734375 20.921875 C36.09244088 25.83651473 40.58956873 27.60805192 47.8046875 27.35546875 C48.52810333 27.34743729 49.25151917 27.33940582 49.99685669 27.33113098 C52.29035023 27.3023754 54.58209718 27.24626138 56.875 27.1875 C59.15545827 27.14473235 61.4358764 27.10783156 63.71650696 27.07557678 C65.18209006 27.05398352 66.64760011 27.02658676 68.11296082 26.9931488 C71.9073593 26.92740803 75.38809452 27.15285274 79.10546875 27.890625 C83.2985889 28.00838565 83.78583688 27.85165952 86.80859375 25.31640625 C88.04148508 24.08801148 89.25047864 22.83527454 90.4375 21.5625 C91.74259665 20.25951647 93.04988631 18.95872574 94.359375 17.66015625 C94.98392578 17.0273877 95.60847656 16.39461914 96.25195312 15.74267578 C103.7486615 8.26900199 113.89905641 -0.14076544 124.9375 -0.5625 C128.59704495 -0.28405636 131.11548619 0.63994324 134 3 C136.46324069 6.69486103 136.38991688 8.63293092 136 13 C133.91319875 15.75326657 132.19282089 16.4273901 128.83203125 16.921875 C127.62123901 17.12345215 127.62123901 17.12345215 126.38598633 17.32910156 C125.1121106 17.53744629 125.1121106 17.53744629 123.8125 17.75 C116.05151101 19.2059543 111.20581898 20.82968249 106 27 C104.5077783 28.48701325 103.00773647 29.96622002 101.5 31.4375 C100.33076672 32.62247296 99.16312671 33.80903249 98 35 C99.39505937 38.13714843 101.06674586 40.28237634 103.4375 42.75 C108.97550214 49.01486492 110.61348876 54.78798331 110.34765625 63.1328125 C109.14356548 73.06317904 104.34439838 81.07492649 97.0625 87.75 C94.79053803 89.73737307 94.79053803 89.73737307 94.9375 92 C96.31894964 94.60037579 98.14239991 96.72294182 100 99 C100 99.66 100 100.32 100 101 C108.42248367 98.45321832 114.88439283 94.69373524 121.9375 89.5 C132.31798443 82.0782533 142.88400655 75.26476621 154 69 C154.68578125 68.60844727 155.3715625 68.21689453 156.078125 67.81347656 C172.60725136 58.49957416 190.58072032 53.837488 209.5 53.75 C210.61503906 53.729375 211.73007812 53.70875 212.87890625 53.6875 C223.2914438 53.63785739 223.2914438 53.63785739 228 57 C231.35124639 61.70985979 232.57186705 65.15292719 233 71 C232.48137505 73.6526391 231.91116425 75.96381291 231.0625 78.5 C230.83796143 79.18852051 230.61342285 79.87704102 230.38208008 80.58642578 C226.32297107 92.42740735 220.19212773 102.55852818 212 112 C211.21625 113.03125 210.4325 114.0625 209.625 115.125 C197.43116311 128.48015469 180.168451 136.34314609 162.171875 137.34375 C150.8688736 137.67903646 140.05517769 136.24307953 129 134 C129.72703125 134.54527344 130.4540625 135.09054687 131.203125 135.65234375 C132.76714879 136.82536159 134.33105733 137.99853692 135.89282227 139.17456055 C138.58393327 141.19901969 141.28347627 143.20516181 144.01171875 145.1796875 C151.88934378 150.92225528 159.0255615 157.21100065 166 164 C167.175625 165.11955078 167.175625 165.11955078 168.375 166.26171875 C171.40780352 169.37401107 173.41698971 171.76272868 173.8125 176.1875 C172.7304788 181.26467638 171.25524375 182.19153913 167 185 C159.49999858 188.75000071 149.45111232 185.67857388 141.90966797 183.21166992 C135.65449996 181.03050151 129.80233745 178.19787916 124 175 C124.08701172 176.79630859 124.08701172 176.79630859 124.17578125 178.62890625 C125.11960996 206.49487331 110.62286855 226.72825694 92.38671875 246.3671875 C90.04949671 248.94539971 87.86151039 251.595977 85.6875 254.3125 C82.0172257 258.84636826 78.19188709 263.20283792 74.25 267.5 C73.70690186 268.09981689 73.16380371 268.69963379 72.60424805 269.31762695 C69.66250997 272.4908342 66.96009552 275.10104635 63 277 C58.08565427 277.1068336 55.37988791 275.17976515 51.91015625 271.9921875 C48.8333678 268.78326703 46.08586655 265.32686167 43.3125 261.85546875 C38.91720771 256.42817371 34.18164564 251.29851951 29.375 246.234375 C9.90950412 225.65437587 -2.45449464 203.59184919 -4 175 C-4.88300781 175.54269531 -5.76601562 176.08539063 -6.67578125 176.64453125 C-18.4145051 183.71145357 -28.95981194 187.60107408 -43 186 C-45.7784128 185.00038654 -46.82439372 184.11680611 -49 182 C-49.639375 181.401875 -50.27875 180.80375 -50.9375 180.1875 C-52.6467523 176.66845115 -52.11703564 174.72345213 -51 171 C-46.97520363 165.10779091 -41.408264 160.5713953 -36 156 C-34.74960904 154.87543455 -33.49961399 153.75042875 -32.25 152.625 C-24.93590041 146.21975302 -16.94187026 140.59540859 -9 135 C-10.52753906 135.2165625 -10.52753906 135.2165625 -12.0859375 135.4375 C-35.17919999 138.54106233 -57.96636565 138.44683858 -77.55859375 123.94921875 C-94.58041525 110.35899647 -106.90219502 94.16252817 -110.44140625 72.26953125 C-110.73279376 66.80836527 -109.04314163 62.49579112 -106 58 C-102.27931988 53.86591098 -95.93153528 53.15961603 -90.58764648 52.86865234 C-88.07074096 52.88333408 -85.57526494 52.98004189 -83.0625 53.125 C-82.15226074 53.17503174 -81.24202148 53.22506348 -80.30419922 53.27661133 C-52.77249014 55.12211191 -31.05477077 67.6229467 -8.72705078 82.82714844 C-5.07475688 85.30744528 -1.39186611 87.74218249 2.2890625 90.1796875 C4.02944404 91.34830104 5.75508632 92.53934737 7.4609375 93.7578125 C12.2767 97.16007475 16.18016033 98.94184733 22 100 C25.12568317 96.20478262 25.12568317 96.20478262 25.859375 91.5625 C24.82924851 88.49085009 23.45368516 86.98732056 21.1875 84.6875 C13.02192044 75.90730692 11.50737428 67.62143916 11.72265625 55.92578125 C12.30144816 47.73302255 16.53965561 42.82436735 22 37 C20.59614364 32.79597855 18.59912401 30.07810793 15.625 26.8125 C14.85414063 25.95269531 14.08328125 25.09289062 13.2890625 24.20703125 C9.92192503 20.96055912 6.90361964 19.82458855 2.33984375 19.03515625 C1.46392578 18.87466797 0.58800781 18.71417969 -0.31445312 18.54882812 C-2.14960711 18.22405674 -3.98555805 17.90375753 -5.82226562 17.58789062 C-7.13420898 17.34522461 -7.13420898 17.34522461 -8.47265625 17.09765625 C-9.66773804 16.88894897 -9.66773804 16.88894897 -10.88696289 16.67602539 C-13.36525192 15.88314471 -14.43438309 15.06629486 -16 13 C-16.54763378 8.77539655 -16.473273 6.72568527 -14.125 3.125 C-9.97601563 -1.02398437 -5.60285423 -0.75734119 0 0 Z " fill="#11120C" transform="translate(193,161)"/>
<path d="M0 0 C1.87451172 0.3059082 1.87451172 0.3059082 4 1 C5.54039943 3.38252441 6.84224652 5.67204184 8.125 8.1875 C11.08891181 13.71721385 14.18322801 18.98658771 17.875 24.0625 C18.28758057 24.63081543 18.70016113 25.19913086 19.12524414 25.78466797 C21.30229877 28.75356917 23.52280894 31.68694242 25.76171875 34.609375 C38.92263098 51.91489658 47.76302501 68.57040406 46 91 C44.34271406 101.88284433 38.64064682 111.16587895 30 118 C16.88858034 126.0900249 1.16713817 127.02829341 -13.78515625 124.3125 C-23.92942607 121.1710487 -33.98372229 114.73194735 -39.5078125 105.47265625 C-45.64712955 93.52729935 -46.04412064 79.22576119 -42.1875 66.375 C-37.01044256 52.96105564 -28.3485912 41.26041112 -19.85766602 29.77929688 C-15.40138563 23.70539403 -11.42924427 17.40962223 -7.6015625 10.92382812 C-5.30020643 7.03717259 -2.93869969 3.45449918 0 0 Z " fill="#CB9437" transform="translate(253,28)"/>
<path d="M0 0 C0.89976562 0.25394531 1.79953125 0.50789063 2.7265625 0.76953125 C33.14113826 9.0413284 63.79789242 9.53750766 94 0 C93.19144829 8.73235845 91.36372063 18.81495367 86 26 C83.14607881 27.97579159 81.21439363 28.91070473 78 30 C76.52080078 30.556875 76.52080078 30.556875 75.01171875 31.125 C58.30137238 36.38465 36.93380905 36.2526229 20 31.875 C19.27256592 31.68752197 18.54513184 31.50004395 17.7956543 31.30688477 C11.36716496 29.33591101 6.59658073 25.76506729 3.22265625 19.921875 C0.72027511 13.0803481 -0.74143461 7.29901187 0 0 Z " fill="#C28B33" transform="translate(207,344)"/>
<path d="M0 0 C5.26301731 0.95330125 10.31080086 2.53245916 15.4296875 4.0625 C31.93584731 8.39672139 52.69279393 7.86283822 68 0 C68.66 0 69.32 0 70 0 C70.99602827 1.97073482 71.97096917 3.95213197 72.9375 5.9375 C73.48277344 7.03964844 74.02804687 8.14179688 74.58984375 9.27734375 C76.21205386 13.55979869 76.70692142 17.46082469 77 22 C72.98046542 22.98455006 68.95916025 23.96167239 64.9375 24.9375 C63.2369043 25.35418945 63.2369043 25.35418945 61.50195312 25.77929688 C45.19468112 29.72537144 29.72900745 30.17828069 13.1875 27.25 C12.27540771 27.09313721 11.36331543 26.93627441 10.42358398 26.7746582 C3.97182298 25.52621999 -0.58127476 23.3503736 -6 19.625 C-7.62342243 16.98693856 -6.6730343 14.94321735 -6 12 C-5.05204682 9.84150273 -4.02878489 7.71469447 -2.9375 5.625 C-2.38964844 4.56539063 -1.84179688 3.50578125 -1.27734375 2.4140625 C-0.85582031 1.61742187 -0.43429688 0.82078125 0 0 Z " fill="#C28C36" transform="translate(219,296)"/>
<path d="M0 0 C-1.69750107 2.86073792 -3.40996104 5.71224743 -5.125 8.5625 C-5.599375 9.36236328 -6.07375 10.16222656 -6.5625 10.98632812 C-10.44950521 17.42089756 -14.59984617 23.81528403 -21 28 C-19.68 28.33 -18.36 28.66 -17 29 C-17 29.99 -17 30.98 -17 32 C-16.01 32.33 -15.02 32.66 -14 33 C-14 32.34 -14 31.68 -14 31 C-12.68 31 -11.36 31 -10 31 C-10 30.34 -10 29.68 -10 29 C-9.34 29 -8.68 29 -8 29 C-8.20625 27.741875 -8.4125 26.48375 -8.625 25.1875 C-9.21335669 21.5985242 -9.16617415 21.24926122 -7 18 C-4.625 15.75 -4.625 15.75 -2 14 C0.3125 14.25 0.3125 14.25 2 15 C2 15.66 2 16.32 2 17 C2.66 17.33 3.32 17.66 4 18 C3.43152344 18.6290625 2.86304688 19.258125 2.27734375 19.90625 C1.11912109 21.19015625 1.11912109 21.19015625 -0.0625 22.5 C-0.88621094 23.41136719 -1.70992188 24.32273437 -2.55859375 25.26171875 C-4.62514791 27.5795659 -6.6289062 29.93446571 -8.625 32.3125 C-11.80882492 35.93014864 -14.78116491 38.62211113 -19 41 C-23.00543926 41.25033995 -25.25922093 40.03252809 -28.3125 37.625 C-32.18514797 34.06727066 -35.38897895 29.98716145 -38.66015625 25.8828125 C-41.62781246 22.22650151 -44.77319607 18.75706512 -47.95703125 15.2890625 C-50.06531115 12.92682154 -52.04338186 10.4886424 -54 8 C-53.3125 5.5625 -53.3125 5.5625 -52 3 C-49.4375 2.3125 -49.4375 2.3125 -47 2 C-46.67 1.34 -46.34 0.68 -46 0 C-46 0.99 -46 1.98 -46 3 C-45.34 3 -44.68 3 -44 3 C-43.67 2.34 -43.34 1.68 -43 1 C-42.29093506 1.01047363 -41.58187012 1.02094727 -40.85131836 1.03173828 C-22.63221474 1.3130789 -22.63221474 1.3130789 -4.5625 -0.66015625 C-2 -1 -2 -1 0 0 Z " fill="#1E1B17" transform="translate(275,397)"/>
<path d="M0 0 C10.76495691 3.60160904 21.14238846 9.8617971 28 19 C27.071875 19.12375 27.071875 19.12375 26.125 19.25 C23.83330129 19.79326091 23.83330129 19.79326091 22.9375 21.9375 C22.628125 22.618125 22.31875 23.29875 22 24 C21.01 24.66 20.02 25.32 19 26 C20.32 26.33 21.64 26.66 23 27 C21.68 28.32 20.36 29.64 19 31 C18.46890625 30.37351563 17.9378125 29.74703125 17.390625 29.1015625 C16.33101562 27.87566406 16.33101562 27.87566406 15.25 26.625 C14.55390625 25.81289062 13.8578125 25.00078125 13.140625 24.1640625 C9.8903032 20.87815323 6.83871455 19.81336141 2.33984375 19.03515625 C1.46392578 18.87466797 0.58800781 18.71417969 -0.31445312 18.54882812 C-2.14960711 18.22405674 -3.98555805 17.90375753 -5.82226562 17.58789062 C-6.69689453 17.42611328 -7.57152344 17.26433594 -8.47265625 17.09765625 C-9.66773804 16.88894897 -9.66773804 16.88894897 -10.88696289 16.67602539 C-13.36525192 15.88314471 -14.43438309 15.06629486 -16 13 C-16.54763378 8.77539655 -16.473273 6.72568527 -14.125 3.125 C-9.97601563 -1.02398437 -5.60285423 -0.75734119 0 0 Z " fill="#161612" transform="translate(193,161)"/>
<path d="M0 0 C-1.69750107 2.86073792 -3.40996104 5.71224743 -5.125 8.5625 C-5.599375 9.36236328 -6.07375 10.16222656 -6.5625 10.98632812 C-14.48320328 24.09830315 -14.48320328 24.09830315 -21 27 C-26.82069544 22.63887472 -31.37482205 17.36058073 -35.9375 11.75 C-36.51717529 11.04037109 -37.09685059 10.33074219 -37.6940918 9.59960938 C-41.86941256 4.39176233 -41.86941256 4.39176233 -43 1 C-42.29093506 1.01047363 -41.58187012 1.02094727 -40.85131836 1.03173828 C-22.63221474 1.3130789 -22.63221474 1.3130789 -4.5625 -0.66015625 C-2 -1 -2 -1 0 0 Z " fill="#C28C31" transform="translate(275,397)"/>
<path d="M0 0 C2.0625 1.6875 2.0625 1.6875 4.0625 4.6875 C4.62168664 10.95039034 4.62168664 10.95039034 2.80566406 13.34423828 C0.76609921 14.91590296 -0.61080298 15.2669154 -3.140625 15.6796875 C-3.95660156 15.82792969 -4.77257812 15.97617188 -5.61328125 16.12890625 C-7.31296101 16.41519525 -9.01348077 16.69654634 -10.71484375 16.97265625 C-16.65281595 18.06330421 -20.25622019 19.8539114 -24.9375 23.6875 C-24.9375 21.7075 -24.9375 19.7275 -24.9375 17.6875 C-26.5875 17.6875 -28.2375 17.6875 -29.9375 17.6875 C-30.2675 18.3475 -30.5975 19.0075 -30.9375 19.6875 C-31.9275 19.6875 -32.9175 19.6875 -33.9375 19.6875 C-36.12527466 21.6250006 -36.12527466 21.6250006 -37.9375 23.6875 C-38.5975 23.3575 -39.2575 23.0275 -39.9375 22.6875 C-40.9275 22.3575 -41.9175 22.0275 -42.9375 21.6875 C-30.15062299 8.31645094 -30.15062299 8.31645094 -21.9375 3.6875 C-21.12539063 3.20410156 -20.31328125 2.72070312 -19.4765625 2.22265625 C-12.91253435 -1.422904 -7.100283 -3.17246687 0 0 Z " fill="#181915" transform="translate(324.9375,162.3125)"/>
<path d="M0 0 C0.7425 0.2475 1.485 0.495 2.25 0.75 C2.25 1.41 2.25 2.07 2.25 2.75 C2.91 3.08 3.57 3.41 4.25 3.75 C3.68152344 4.3790625 3.11304688 5.008125 2.52734375 5.65625 C1.36912109 6.94015625 1.36912109 6.94015625 0.1875 8.25 C-0.63621094 9.16136719 -1.45992188 10.07273437 -2.30859375 11.01171875 C-4.37514791 13.3295659 -6.3789062 15.68446571 -8.375 18.0625 C-11.55882492 21.68014864 -14.53116491 24.37211113 -18.75 26.75 C-22.91905616 27.01056601 -25.16256709 25.64902832 -28.3125 23.125 C-31.71238431 20.01221703 -34.21642879 16.58874426 -36.75 12.75 C-34.77 12.42 -32.79 12.09 -30.75 11.75 C-30.09 13.07 -29.43 14.39 -28.75 15.75 C-28.09 15.42 -27.43 15.09 -26.75 14.75 C-26.09786708 12.72536745 -26.09786708 12.72536745 -25.75 10.75 C-27.07 10.42 -28.39 10.09 -29.75 9.75 C-30.08 7.77 -30.41 5.79 -30.75 3.75 C-29.6444811 4.68590504 -28.54064547 5.62379858 -27.4375 6.5625 C-26.82261719 7.08457031 -26.20773438 7.60664063 -25.57421875 8.14453125 C-23.75 9.75 -23.75 9.75 -22.15625 11.375 C-20.51223161 12.98248464 -18.83697548 13.81445927 -16.75 14.75 C-16.75 15.74 -16.75 16.73 -16.75 17.75 C-15.76 18.08 -14.77 18.41 -13.75 18.75 C-13.75 18.09 -13.75 17.43 -13.75 16.75 C-12.43 16.75 -11.11 16.75 -9.75 16.75 C-9.75 16.09 -9.75 15.43 -9.75 14.75 C-9.09 14.75 -8.43 14.75 -7.75 14.75 C-7.95625 13.491875 -8.1625 12.23375 -8.375 10.9375 C-8.96335669 7.3485242 -8.91617415 6.99926122 -6.75 3.75 C-3.47470588 -0.31588235 -3.47470588 -0.31588235 0 0 Z " fill="#1B1A17" transform="translate(274.75,411.25)"/>
<path d="M0 0 C-0.80238136 8.66571873 -2.58827401 18.91555871 -8 26 C-14.00112584 30.40257267 -21.64342277 32.35885743 -29 32 C-25.95909811 30.27785658 -22.87191627 29.37981218 -19.515625 28.45263672 C-13.2472641 26.75642841 -13.2472641 26.75642841 -8.09375 23 C-7.0311498 20.93551962 -6.30796853 19.30013996 -6 17 C-6.495 15.515 -6.495 15.515 -7 14 C-7.66 13.67 -8.32 13.34 -9 13 C-9 14.32 -9 15.64 -9 17 C-9.66 17 -10.32 17 -11 17 C-11 15.35 -11 13.7 -11 12 C-10.34 12 -9.68 12 -9 12 C-8.67 10.35 -8.34 8.7 -8 7 C-6.68 6.67 -5.36 6.34 -4 6 C-4 5.34 -4 4.68 -4 4 C-4.57322998 4.19698486 -5.14645996 4.39396973 -5.73706055 4.59692383 C-12.70932566 6.85556439 -19.5400251 7.90601855 -26.8125 8.6875 C-28.44155273 8.88182617 -28.44155273 8.88182617 -30.10351562 9.08007812 C-41.48631562 10.35684323 -52.62365301 10.27670427 -64 9 C-64 8.67 -64 8.34 -64 8 C-63.17612793 7.9906543 -62.35225586 7.98130859 -61.50341797 7.97167969 C-41.90257622 7.69365356 -22.49926768 7.25690329 -3.82568359 0.58154297 C-2 0 -2 0 0 0 Z " fill="#C69D5D" transform="translate(301,344)"/>
<path d="M0 0 C4.26912893 1.43859536 7.23391301 3.56814873 10.6875 6.4375 C11.64011719 7.21996094 12.59273437 8.00242188 13.57421875 8.80859375 C16 11 16 11 18 14 C17.071875 14.12375 17.071875 14.12375 16.125 14.25 C13.83330129 14.79326091 13.83330129 14.79326091 12.9375 16.9375 C12.628125 17.618125 12.31875 18.29875 12 19 C11.01 19.66 10.02 20.32 9 21 C10.32 21.33 11.64 21.66 13 22 C11.68 23.32 10.36 24.64 9 26 C8.46890625 25.37351563 7.9378125 24.74703125 7.390625 24.1015625 C6.33101562 22.87566406 6.33101562 22.87566406 5.25 21.625 C4.55390625 20.81289062 3.8578125 20.00078125 3.140625 19.1640625 C-0.55585166 15.42711346 -3.86024876 14.70087517 -9 14 C-9 13.67 -9 13.34 -9 13 C-8.01257813 12.89042969 -7.02515625 12.78085938 -6.0078125 12.66796875 C-4.72648438 12.50941406 -3.44515625 12.35085937 -2.125 12.1875 C-0.84882813 12.03667969 0.42734375 11.88585937 1.7421875 11.73046875 C5.27770316 11.33151918 5.27770316 11.33151918 7 8 C7 7.01 7 6.02 7 5 C6.01 5.33 5.02 5.66 4 6 C3.01 5.67 2.02 5.34 1 5 C0.67 3.35 0.34 1.7 0 0 Z " fill="#232520" transform="translate(203,166)"/>
<path d="M0 0 C6.3211016 0.38867615 12.01436358 0.82340494 18 3 C25.30353981 4.30420354 32.60004229 4.09353879 40 4 C40 4.33 40 4.66 40 5 C42.58340384 5.02703562 45.16652308 5.04685611 47.75 5.0625 C48.47960937 5.07087891 49.20921875 5.07925781 49.9609375 5.08789062 C54.05079472 5.1390416 54.05079472 5.1390416 58.05566406 4.43139648 C60 4 60 4 63 5 C64.66621616 5.03874921 66.33394172 5.0450286 68 5 C51.15939497 14.35589168 21.7640166 7.27779037 4.046875 2.74609375 C2 2 2 2 0 0 Z " fill="#190B02" transform="translate(209,344)"/>
<path d="M0 0 C0.33 0.66 0.66 1.32 1 2 C0.08367618 4.41137848 -0.89649829 6.67589027 -2 9 C-2.32613281 9.72703125 -2.65226563 10.4540625 -2.98828125 11.203125 C-3.32214844 11.91984375 -3.65601563 12.6365625 -4 13.375 C-4.309375 14.04273437 -4.61875 14.71046875 -4.9375 15.3984375 C-6 17 -6 17 -9 18 C-8.938125 18.804375 -8.87625 19.60875 -8.8125 20.4375 C-8.97958771 23.61216642 -9.39652248 25.30706103 -10.5 28.1875 C-13.73447343 37.32641313 -11.84230693 47.53908825 -11 57 C-11.33 56.34 -11.66 55.68 -12 55 C-12.66 55 -13.32 55 -14 55 C-17.7553212 41.50704359 -15.50323995 25.90583191 -8.78173828 13.80712891 C-6.0190594 9.09195566 -3.06233751 4.52512396 0 0 Z " fill="#C39D5D" transform="translate(224,71)"/>
<path d="M0 0 C13.86 0.495 13.86 0.495 28 1 C26 3 26 3 23.75341797 3.22705078 C22.84221191 3.21657715 21.93100586 3.20610352 20.9921875 3.1953125 C20.00605469 3.18886719 19.01992187 3.18242187 18.00390625 3.17578125 C16.45509766 3.15064453 16.45509766 3.15064453 14.875 3.125 C13.83472656 3.11597656 12.79445312 3.10695313 11.72265625 3.09765625 C9.14820908 3.07403747 6.57421788 3.04110149 4 3 C4.825 3.94875 5.65 4.8975 6.5 5.875 C9 8.75 9 8.75 9 11 C9.99 11.33 10.98 11.66 12 12 C13.33333333 14 14.66666667 16 16 18 C18.24291412 20.5120439 18.24291412 20.5120439 21 22 C24.24293584 21.86382428 24.24293584 21.86382428 27 21 C26 24 26 24 23.9375 25.1875 C23.298125 25.455625 22.65875 25.72375 22 26 C16.17930456 21.63887472 11.62517795 16.36058073 7.0625 10.75 C6.48282471 10.04037109 5.90314941 9.33074219 5.3059082 8.59960938 C1.13058744 3.39176233 1.13058744 3.39176233 0 0 Z " fill="#BA9358" transform="translate(232,398)"/>
<path d="M0 0 C5.28 1.32 10.56 2.64 16 4 C16 5.98 16 7.96 16 10 C15.67 9.01 15.34 8.02 15 7 C12.90280128 5.97718482 12.90280128 5.97718482 10.4375 5.3125 C9.61121094 5.06113281 8.78492188 4.80976563 7.93359375 4.55078125 C7.29550781 4.36902344 6.65742188 4.18726563 6 4 C6.2784375 4.9590625 6.2784375 4.9590625 6.5625 5.9375 C6.706875 6.618125 6.85125 7.29875 7 8 C6.67 8.33 6.34 8.66 6 9 C5.92741054 11.18639453 5.91626217 13.37500389 5.9375 15.5625 C5.94652344 16.76003906 5.95554688 17.95757812 5.96484375 19.19140625 C5.97644531 20.11824219 5.98804688 21.04507812 6 22 C2.55346265 20.27673132 2.05222858 16.56399125 0.8203125 13.078125 C-0.38050954 8.57218323 -0.26905614 4.64121842 0 0 Z " fill="#B68B44" transform="translate(207,344)"/>
<path d="M0 0 C0.99 0 1.98 0 3 0 C2.85464496 8.43059212 2.35088011 16.14294623 -3 23 C-5.51479656 24.93486444 -7.99850466 26.01477634 -11 27 C-12.19625 27.4125 -13.3925 27.825 -14.625 28.25 C-17.87721506 28.97271446 -20.68229013 29.16183951 -24 29 C-20.95909811 27.27785658 -17.87191627 26.37981218 -14.515625 25.45263672 C-8.2472641 23.75642841 -8.2472641 23.75642841 -3.09375 20 C-2.0311498 17.93551962 -1.30796853 16.30013996 -1 14 C-1.33 13.01 -1.66 12.02 -2 11 C-2.66 10.67 -3.32 10.34 -4 10 C-4 11.32 -4 12.64 -4 14 C-4.66 14 -5.32 14 -6 14 C-6 12.35 -6 10.7 -6 9 C-5.34 9 -4.68 9 -4 9 C-3.67 7.35 -3.34 5.7 -3 4 C-1.68 3.67 -0.36 3.34 1 3 C0.67 2.01 0.34 1.02 0 0 Z " fill="#C4934A" transform="translate(296,347)"/>
<path d="M0 0 C1.32 0 2.64 0 4 0 C4 0.66 4 1.32 4 2 C4.61875 2.144375 5.2375 2.28875 5.875 2.4375 C8 3 8 3 10 4 C11.3734635 4.15004973 12.7528526 4.24838006 14.1328125 4.31640625 C14.93847656 4.35830078 15.74414062 4.40019531 16.57421875 4.44335938 C17.41597656 4.48267578 18.25773437 4.52199219 19.125 4.5625 C19.97449219 4.60568359 20.82398438 4.64886719 21.69921875 4.69335938 C23.79928223 4.79954236 25.89961948 4.90028497 28 5 C27.67 5.66 27.34 6.32 27 7 C2.28960534 7.85754173 2.28960534 7.85754173 -7 3 C-7.66 2.34 -8.32 1.68 -9 1 C-6.03 1.33 -3.06 1.66 0 2 C0 1.34 0 0.68 0 0 Z " fill="#BF954C" transform="translate(238,146)"/>
<path d="M0 0 C0.66 0 1.32 0 2 0 C2.99602827 1.97073482 3.97096917 3.95213197 4.9375 5.9375 C5.48277344 7.03964844 6.02804687 8.14179688 6.58984375 9.27734375 C8.21205386 13.55979869 8.70692142 17.46082469 9 22 C5.62772763 22.84464056 2.25180079 23.67366647 -1.125 24.5 C-2.07632812 24.73847656 -3.02765625 24.97695313 -4.0078125 25.22265625 C-8.76064801 26.37785933 -13.06733309 27.33216612 -18 27 C-17.67 26.34 -17.34 25.68 -17 25 C-14.59115537 24.35249306 -12.25824325 23.82937505 -9.8125 23.375 C-9.15185547 23.2409375 -8.49121094 23.106875 -7.81054688 22.96875 C-3.82089458 22.19681333 -0.05904171 21.86112143 4 22 C3.814375 21.319375 3.62875 20.63875 3.4375 19.9375 C3 17 3 17 3.6875 13.6875 C4.05836761 9.31126224 3.05479182 7.39962385 0.91015625 3.69921875 C0 2 0 2 0 0 Z " fill="#BF9452" transform="translate(287,296)"/>
<path d="M0 0 C1.32 0 2.64 0 4 0 C4.73080266 1.97746603 5.39421747 3.98072489 6 6 C5.67 6.66 5.34 7.32 5 8 C6.32 8.33 7.64 8.66 9 9 C8.67 10.65 8.34 12.3 8 14 C7.01 14.33 6.02 14.66 5 15 C4.34 13.68 3.68 12.36 3 11 C2.01 11.33 1.02 11.66 0 12 C-2.2477975 9.94766315 -3.0022242 8.99332739 -4 6 C-3.525625 5.566875 -3.05125 5.13375 -2.5625 4.6875 C-0.76313043 2.97690387 -0.76313043 2.97690387 0 0 Z " fill="#0F0E0A" transform="translate(240,413)"/>
<path d="M0 0 C1.32 0.99 2.64 1.98 4 3 C4.99 2.34 5.98 1.68 7 1 C7.625 2.8125 7.625 2.8125 8 5 C7.01 6.485 7.01 6.485 6 8 C8.84714869 11.51056197 10.2024736 12.89669347 14.76953125 13.48828125 C16.11805963 13.45539031 17.4661725 13.39624286 18.8125 13.3125 C19.50537109 13.28994141 20.19824219 13.26738281 20.91210938 13.24414062 C22.60901573 13.18562661 24.30479861 13.0959548 26 13 C20.62171693 16.3447034 14.08333589 15.57936532 8 15 C5.20141987 14.0110664 4.18680056 13.12769784 2 11 C1.360625 10.401875 0.72125 9.80375 0.0625 9.1875 C-1.5123144 5.94523506 -0.72720239 3.43768405 0 0 Z " fill="#0D0D0A" transform="translate(142,332)"/>
<path d="M0 0 C1.88671875 0.17578125 1.88671875 0.17578125 4 1 C7.07693806 4.75718657 8.97409183 8.57505087 9.0625 13.4375 C8 16 8 16 4 18 C4.33 15.03 4.66 12.06 5 9 C4.34 9 3.68 9 3 9 C3 8.34 3 7.68 3 7 C2.34 7 1.68 7 1 7 C1 7.66 1 8.32 1 9 C-1.5 10.625 -1.5 10.625 -4 12 C-4.75 9.875 -4.75 9.875 -5 7 C-3.51209453 4.42096386 -2.11387131 2.11387131 0 0 Z " fill="#C59647" transform="translate(253,28)"/>
<path d="M0 0 C1.29567565 2.5913513 1.34250494 4.12295849 1 7 C-1 9.3125 -1 9.3125 -3 11 C-2.34 11 -1.68 11 -1 11 C-1.25 12.875 -1.25 12.875 -2 15 C-3.75 16 -3.75 16 -6 17 C-9.30293358 19.35923827 -11.50083937 21.18395476 -13 25 C-13.66 24.67 -14.32 24.34 -15 24 C-13.60421372 20.02737752 -11.72341883 17.03801608 -9.1875 13.6875 C-5.87987701 9.24118713 -2.8633851 4.74248157 0 0 Z " fill="#C2943C" transform="translate(247,37)"/>
<path d="M0 0 C2.64752004 2.57784846 4.94432065 4.91648098 7 8 C6.01 8.33 5.02 8.66 4 9 C3.40929986 10.94603274 3.40929986 10.94603274 3 13 C2.34 13.66 1.68 14.32 1 15 C1.3185177 17.10820797 1.3185177 17.10820797 2 19 C-1.39417765 15.87378374 -3.6062718 13.43458973 -5 9 C-4.01 8.67 -3.02 8.34 -2 8 C-1.34 8.33 -0.68 8.66 0 9 C0 6.03 0 3.06 0 0 Z " fill="#18100A" transform="translate(236,405)"/>
<path d="M0 0 C-0.66 0 -1.32 0 -2 0 C-2 0.66 -2 1.32 -2 2 C-7.56980597 3.16620728 -13.02443957 3.18360786 -18.6875 3.1875 C-19.63689453 3.19974609 -20.58628906 3.21199219 -21.56445312 3.22460938 C-22.93053711 3.22750977 -22.93053711 3.22750977 -24.32421875 3.23046875 C-25.5630481 3.23663208 -25.5630481 3.23663208 -26.8269043 3.24291992 C-29 3 -29 3 -32 1 C-28.40629059 -0.19790314 -25.17077058 -0.06590405 -21.4375 0 C-15.85865795 0.0610294 -10.45586145 -0.10684204 -4.91796875 -0.87890625 C-3 -1 -3 -1 0 0 Z " fill="#210E03" transform="translate(274,300)"/>
<path d="M0 0 C0.99 0 1.98 0 3 0 C3.64910154 1.58199631 4.29414694 3.16565724 4.9375 4.75 C5.29714844 5.63171875 5.65679687 6.5134375 6.02734375 7.421875 C7.43542689 11.15414357 8.12618304 14.33437469 8.09765625 18.328125 C8.09443359 19.12734375 8.09121094 19.9265625 8.08789062 20.75 C8.07951172 21.575 8.07113281 22.4 8.0625 23.25 C8.05798828 24.09046875 8.05347656 24.9309375 8.04882812 25.796875 C8.03707961 27.86461401 8.01914522 29.93231624 8 32 C7.67 32 7.34 32 7 32 C6.89042969 30.7934375 6.78085937 29.586875 6.66796875 28.34375 C6.50838226 26.72911025 6.34819381 25.11452992 6.1875 23.5 C6.11724609 22.70851563 6.04699219 21.91703125 5.97460938 21.1015625 C5.35140708 15.01910808 4.49006637 8.49006637 0 4 C0 2.68 0 1.36 0 0 Z " fill="#B9914A" transform="translate(290,85)"/>
<path d="M0 0 C0.97453125 0.05220703 1.9490625 0.10441406 2.953125 0.15820312 C5.34413402 0.28713008 7.73464426 0.42205944 10.125 0.5625 C9.795 1.2225 9.465 1.8825 9.125 2.5625 C-3.25 3.0575 -3.25 3.0575 -15.875 3.5625 C-16.205 2.5725 -16.535 1.5825 -16.875 0.5625 C-11.18901066 -0.72977031 -5.76696518 -0.33992274 0 0 Z " fill="#434340" transform="translate(110.875,214.4375)"/>
<path d="M0 0 C0.33 0.66 0.66 1.32 1 2 C0.08367618 4.41137848 -0.89649829 6.67589027 -2 9 C-2.32613281 9.72703125 -2.65226563 10.4540625 -2.98828125 11.203125 C-3.32214844 11.91984375 -3.65601563 12.6365625 -4 13.375 C-4.4640625 14.37660156 -4.4640625 14.37660156 -4.9375 15.3984375 C-6 17 -6 17 -9 18 C-9 19.32 -9 20.64 -9 22 C-9.99 22.33 -10.98 22.66 -12 23 C-9.7268634 14.2105385 -5.0371274 7.42369091 0 0 Z " fill="#CBA465" transform="translate(224,71)"/>
<path d="M0 0 C-1.71350633 2.92613466 -3.44847323 5.83897188 -5.1875 8.75 C-5.67025391 9.575 -6.15300781 10.4 -6.65039062 11.25 C-9.30795665 15.67333136 -11.61399317 19.08134098 -16 22 C-14.62384049 17.59628958 -12.20078039 14.49729608 -9.33984375 10.96484375 C-7.96370747 8.94677802 -7.4303789 7.38568055 -7 5 C-6.34 5 -5.68 5 -5 5 C-5 4.34 -5 3.68 -5 3 C-4.34 3 -3.68 3 -3 3 C-3 2.34 -3 1.68 -3 1 C-3.99 1.495 -3.99 1.495 -5 2 C-6.99960012 2.039992 -9.00047242 2.04346799 -11 2 C-8.0843098 -0.9156902 -3.79153866 -1.89576933 0 0 Z " fill="#C0995E" transform="translate(275,397)"/>
<path d="M0 0 C6.31263504 0.38815555 12.03175398 0.79434386 18 3 C20.60323771 3.52308047 23.21032118 3.99326662 25.828125 4.4375 C28 5 28 5 30 7 C4.21906117 4.21906117 4.21906117 4.21906117 0 0 Z " fill="#281407" transform="translate(209,344)"/>
<path d="M0 0 C13.86 0.495 13.86 0.495 28 1 C26 3 26 3 24.09228516 3.24291992 C22.95218994 3.23675659 22.95218994 3.23675659 21.7890625 3.23046875 C20.95632812 3.22853516 20.12359375 3.22660156 19.265625 3.22460938 C18.39421875 3.21236328 17.5228125 3.20011719 16.625 3.1875 C15.76132813 3.18685547 14.89765625 3.18621094 14.0078125 3.18554688 C10.15367099 3.158782 6.72665602 3.06045207 3 2 C2.67 2.66 2.34 3.32 2 4 C1.34 2.68 0.68 1.36 0 0 Z " fill="#C79B59" transform="translate(232,398)"/>
<path d="M0 0 C2.31 0.33 4.62 0.66 7 1 C7 1.66 7 2.32 7 3 C9.97 3.33 12.94 3.66 16 4 C15.67 4.66 15.34 5.32 15 6 C10.16371695 5.00956295 5.52381127 4.04301154 1 2 C0.731875 2.86625 0.46375 3.7325 0.1875 4.625 C-0.97111987 7.91791964 -2.38209839 10.91127875 -4 14 C-4.33 14 -4.66 14 -5 14 C-4.52963758 9.20230335 -3.73066236 5.98221594 -1 2 C-0.67 1.34 -0.34 0.68 0 0 Z " fill="#2D1908" transform="translate(218,294)"/>
<path d="M0 0 C0 1.65 0 3.3 0 5 C-0.99 5.33 -1.98 5.66 -3 6 C-2.67 4.68 -2.34 3.36 -2 2 C-3.13179688 2.09539062 -4.26359375 2.19078125 -5.4296875 2.2890625 C-6.91141612 2.40159885 -8.39318945 2.51354758 -9.875 2.625 C-10.62136719 2.68945312 -11.36773437 2.75390625 -12.13671875 2.8203125 C-14.0870047 2.96087365 -16.04469467 2.98759849 -18 3 C-18.66 2.34 -19.32 1.68 -20 1 C-17.41765641 0.63667026 -14.83460218 0.28405133 -12.25 -0.0625 C-11.52039063 -0.16626953 -10.79078125 -0.27003906 -10.0390625 -0.37695312 C-6.3892704 -0.85806208 -3.52327086 -1.04532842 0 0 Z " fill="#281608" transform="translate(276,395)"/>
<path d="M0 0 C0.66 0.33 1.32 0.66 2 1 C2.99 0.67 3.98 0.34 5 0 C5.33 0.99 5.66 1.98 6 3 C6.66 3.33 7.32 3.66 8 4 C6.824375 4.37125 6.824375 4.37125 5.625 4.75 C2.67682892 6.15389099 2.0975223 7.00675737 1 10 C-0.32 8.35 -1.64 6.7 -3 5 C-2.01 3.35 -1.02 1.7 0 0 Z " fill="#1B1D17" transform="translate(219,394)"/>
<path d="M0 0 C0.0825 0.61875 0.165 1.2375 0.25 1.875 C0.4975 2.57625 0.745 3.2775 1 4 C1.97453125 4.41765625 1.97453125 4.41765625 2.96875 4.84375 C5 6 5 6 5.828125 8.1640625 C5.96734375 8.97617187 6.1065625 9.78828125 6.25 10.625 C6.39953125 11.44226563 6.5490625 12.25953125 6.703125 13.1015625 C6.85007812 14.04128906 6.85007812 14.04128906 7 15 C6.01 15.495 6.01 15.495 5 16 C4.16209211 14.21046815 3.32980604 12.41830305 2.5 10.625 C2.0359375 9.62726563 1.571875 8.62953125 1.09375 7.6015625 C0 5 0 5 0 3 C-1.98 3.66 -3.96 4.32 -6 5 C-5.67 4.01 -5.34 3.02 -5 2 C-2.4375 0.8125 -2.4375 0.8125 0 0 Z " fill="#281507" transform="translate(289,293)"/>
<path d="M0 0 C3.32812571 0.57381478 4.69842455 1.59380748 7 4 C7.66 4 8.32 4 9 4 C9.33 3.01 9.66 2.02 10 1 C12 4.75 12 4.75 12 7 C10 8.625 10 8.625 8 10 C6.84806377 8.90220176 5.70365063 7.79650554 4.5625 6.6875 C3.92441406 6.07261719 3.28632813 5.45773438 2.62890625 4.82421875 C1 3 1 3 0 0 Z " fill="#151513" transform="translate(211,241)"/>
<path d="M0 0 C0.66 0.33 1.32 0.66 2 1 C0.7934375 2.051875 0.7934375 2.051875 -0.4375 3.125 C-3.25833087 5.76731589 -3.25833087 5.76731589 -3.5 9.1875 C-3.665 10.115625 -3.83 11.04375 -4 12 C-6.5625 13.375 -6.5625 13.375 -9 14 C-9.33 13.67 -9.66 13.34 -10 13 C-10.66 12.67 -11.32 12.34 -12 12 C-8.04 8.04 -4.08 4.08 0 0 Z " fill="#32322E" transform="translate(294,172)"/>
<path d="M0 0 C0.33 0 0.66 0 1 0 C1.54133971 6.63141145 0.89897323 10.54143747 -3 16 C-3.99 16.66 -4.98 17.32 -6 18 C-4 12 -2 6 0 0 Z " fill="#1C1006" transform="translate(300,351)"/>
<path d="M0 0 C0.66386719 0.65484375 1.32773438 1.3096875 2.01171875 1.984375 C5.70041279 4.47243529 8.53500029 4.46285166 12.8125 4.25 C13.50537109 4.23195313 14.19824219 4.21390625 14.91210938 4.1953125 C16.60867664 4.14851064 18.30452476 4.07677624 20 4 C14.63346467 7.33739759 8.07089122 6.60427852 2 6 C-0.63600611 4.94742812 -1.91334799 3.96390777 -4 2 C-2.68 1.34 -1.36 0.68 0 0 Z " fill="#44433F" transform="translate(148,341)"/>
<path d="M0 0 C0.33 0 0.66 0 1 0 C1.72040022 7.08393552 1.72040022 7.08393552 -0.265625 9.609375 C-4.95687624 13.48079592 -7.66761652 14.12090572 -13.625 14.0625 C-14.81351562 14.05347656 -16.00203125 14.04445313 -17.2265625 14.03515625 C-18.14179688 14.02355469 -19.05703125 14.01195312 -20 14 C-20 13.67 -20 13.34 -20 13 C-19.25234375 12.93941406 -18.5046875 12.87882812 -17.734375 12.81640625 C-16.74953125 12.73261719 -15.7646875 12.64882813 -14.75 12.5625 C-13.77546875 12.48128906 -12.8009375 12.40007812 -11.796875 12.31640625 C-9.43538247 12.04925416 -7.28098935 11.64628032 -5 11 C-5 10.34 -5 9.68 -5 9 C-3.35 8.34 -1.7 7.68 0 7 C0 4.69 0 2.38 0 0 Z " fill="#444440" transform="translate(365,333)"/>
<path d="M0 0 C0.66 0.33 1.32 0.66 2 1 C1.80921875 1.60328125 1.6184375 2.2065625 1.421875 2.828125 C0.75139933 5.24495591 0.2201999 7.50008354 0 10 C2.25881804 13.52375615 5.09816846 14.69938949 9 16 C9 16.66 9 17.32 9 18 C3.80130339 16.6384366 0.62869176 14.89420579 -3 11 C-3 6.96821115 -1.61616102 3.6632983 0 0 Z " fill="#AC854E" transform="translate(215,303)"/>
<path d="M0 0 C0.66 0.99 1.32 1.98 2 3 C1.34 3 0.68 3 0 3 C-0.12375 4.11375 -0.2475 5.2275 -0.375 6.375 C-1 10 -1 10 -3 12 C-5.63233792 12.8563027 -8.29546818 13.38929927 -11 14 C-10.62488281 13.57589844 -10.24976563 13.15179688 -9.86328125 12.71484375 C-6.30335421 8.63482662 -3.08682003 4.4486524 0 0 Z " fill="#261307" transform="translate(266,410)"/>
<path d="M0 0 C2.3423347 0.85175807 3.37328361 1.95971938 5.0625 3.75 C3.79410474 4.25615298 2.52266898 4.75469099 1.25 5.25 C0.18845703 5.66765625 0.18845703 5.66765625 -0.89453125 6.09375 C-2.9375 6.75 -2.9375 6.75 -5.9375 6.75 C-5.33566251 4.72954558 -4.66443904 2.72888961 -3.9375 0.75 C-1.9375 -0.25 -1.9375 -0.25 0 0 Z " fill="#2D2E29" transform="translate(173.9375,338.25)"/>
<path d="M0 0 C0.33 0 0.66 0 1 0 C1.35820896 6.32835821 1.35820896 6.32835821 0 8.875 C-3.1954406 10.67243534 -6.36473107 10.70202714 -10 11 C-9.25 8.5625 -9.25 8.5625 -8 6 C-5.08814875 4.64113609 -2.99887865 5.03607472 0 6 C0 4.02 0 2.04 0 0 Z " fill="#2D2D2A" transform="translate(328,167)"/>
<path d="M0 0 C8.34532212 1.26525851 16.67780601 2.59047525 25 4 C25 4.33 25 4.66 25 5 C23.02090602 5.02686553 21.04171029 5.04633375 19.0625 5.0625 C17.96035156 5.07410156 16.85820312 5.08570313 15.72265625 5.09765625 C13 5 13 5 12 4 C10.14712498 3.92773498 8.29166122 3.9161878 6.4375 3.9375 C5.42558594 3.94652344 4.41367188 3.95554687 3.37109375 3.96484375 C2.58863281 3.97644531 1.80617187 3.98804688 1 4 C0.67 2.68 0.34 1.36 0 0 Z " fill="#251203" transform="translate(219,320)"/>
<path d="M0 0 C0.99 0.33 1.98 0.66 3 1 C4.125 7.75 4.125 7.75 3 10 C0 9 0 9 -2 6 C-1.45945946 1.45945946 -1.45945946 1.45945946 0 0 Z " fill="#0C0F0C" transform="translate(233,404)"/>
<path d="M0 0 C1.65 0 3.3 0 5 0 C5 5.28 5 10.56 5 16 C4.67 16 4.34 16 4 16 C3.67 11.38 3.34 6.76 3 2 C0.03 3.65 -2.94 5.3 -6 7 C-5.67 5.68 -5.34 4.36 -5 3 C-2.4375 1.75 -2.4375 1.75 0 1 C0 0.67 0 0.34 0 0 Z " fill="#5F5F5B" transform="translate(186,334)"/>
<path d="M0 0 C0 0.99 0 1.98 0 3 C-2.31 2.67 -4.62 2.34 -7 2 C-7 2.66 -7 3.32 -7 4 C-11.21015871 4.95685425 -13.25712373 5.13181214 -17 3 C-15.10614563 2.49255577 -13.20981334 1.99435426 -11.3125 1.5 C-9.72888672 1.08234375 -9.72888672 1.08234375 -8.11328125 0.65625 C-5.28857328 0.0608285 -2.87163292 -0.12786492 0 0 Z " fill="#34220E" transform="translate(288,320)"/>
<path d="M0 0 C1.32022153 2.64044305 1.40974493 4.06349469 1 7 C-1.65000662 10.16528569 -4.16223678 12.43646684 -8 14 C-6.6744419 10.37723685 -5.05653045 7.36494652 -2.875 4.1875 C-2.33617187 3.39730469 -1.79734375 2.60710938 -1.2421875 1.79296875 C-0.83226562 1.20128906 -0.42234375 0.60960937 0 0 Z " fill="#CFAD70" transform="translate(247,37)"/>
<path d="M0 0 C0.99 0.66 1.98 1.32 3 2 C1.32971708 5.94794145 -1.1795565 8.81796118 -4 12 C-4.33 12 -4.66 12 -5 12 C-5 10.35 -5 8.7 -5 7 C-4.34 6.67 -3.68 6.34 -3 6 C-2.34786708 3.97536745 -2.34786708 3.97536745 -2 2 C-1.34 2 -0.68 2 0 2 C0 1.34 0 0.68 0 0 Z " fill="#343330" transform="translate(292,393)"/>
<path d="M0 0 C0.66 0.33 1.32 0.66 2 1 C1.01 2.1446875 1.01 2.1446875 0 3.3125 C-2.29850538 5.84277939 -2.29850538 5.84277939 -2 9 C-3.5 10.6875 -3.5 10.6875 -5 12 C-5.66 11.67 -6.32 11.34 -7 11 C-7.3125 8.6875 -7.3125 8.6875 -7 6 C-4.625 4.375 -4.625 4.375 -2 3 C-1.34 2.01 -0.68 1.02 0 0 Z " fill="#0A0B06" transform="translate(150,325)"/>
<path d="M0 0 C0.68359375 1.640625 0.68359375 1.640625 1 4 C-0.21484375 6.796875 -0.21484375 6.796875 -1.9375 9.75 C-2.50339844 10.73484375 -3.06929688 11.7196875 -3.65234375 12.734375 C-4.09707031 13.48203125 -4.54179687 14.2296875 -5 15 C-5.33 13.68 -5.66 12.36 -6 11 C-5.34 11 -4.68 11 -4 11 C-4.0825 10.29875 -4.165 9.5975 -4.25 8.875 C-3.9191745 5.07050673 -2.24686686 3.01922734 0 0 Z " fill="#2B2C28" transform="translate(309,370)"/>
<path d="M0 0 C0.51949219 0.27714844 1.03898438 0.55429688 1.57421875 0.83984375 C5.36216005 2.80733267 8.70699113 4.46337389 13 5 C13 5.33 13 5.66 13 6 C11.906875 5.979375 10.81375 5.95875 9.6875 5.9375 C6.05615809 5.81455548 6.05615809 5.81455548 3 7 C0 3.375 0 3.375 0 0 Z " fill="#3E3F3A" transform="translate(225,184)"/>
<path d="M0 0 C0.66 0 1.32 0 2 0 C1.79375 0.94875 1.5875 1.8975 1.375 2.875 C1.25125 3.90625 1.1275 4.9375 1 6 C1.66 6.66 2.32 7.32 3 8 C2.67 8.99 2.34 9.98 2 11 C0.99403703 10.0479279 -0.00461563 9.08812654 -1 8.125 C-1.556875 7.59132812 -2.11375 7.05765625 -2.6875 6.5078125 C-4 5 -4 5 -4 3 C-3.01 2.67 -2.02 2.34 -1 2 C-0.67 1.34 -0.34 0.68 0 0 Z " fill="#C69C58" transform="translate(219,131)"/>
<path d="M0 0 C-1.55500981 3.81684226 -4.03595495 6.19195732 -7 9 C-6.67 6.36 -6.34 3.72 -6 1 C-3 0 -3 0 0 0 Z " fill="#30312E" transform="translate(275,418)"/>
<path d="M0 0 C-0.185625 0.5775 -0.37125 1.155 -0.5625 1.75 C-1.04023546 4.20692525 -0.75729364 5.64397534 0 8 C-4.875 3.375 -4.875 3.375 -6 0 C-3 -1 -3 -1 0 0 Z " fill="#2B2C27" transform="translate(213,387)"/>
<path d="M0 0 C-2.08042163 0.39083065 -4.16452339 0.7621087 -6.25 1.125 C-7.99023438 1.43824219 -7.99023438 1.43824219 -9.765625 1.7578125 C-13.03554316 2.00266144 -14.32492834 1.78779541 -17 0 C-14.91957837 -0.39083065 -12.83547661 -0.7621087 -10.75 -1.125 C-9.00976562 -1.43824219 -9.00976562 -1.43824219 -7.234375 -1.7578125 C-3.96445684 -2.00266144 -2.67507166 -1.78779541 0 0 Z " fill="#B3884B" transform="translate(290,350)"/>
<path d="M0 0 C0 0.33 0 0.66 0 1 C-1.5778125 1.37125 -1.5778125 1.37125 -3.1875 1.75 C-6.8133541 2.76700786 -9.19910772 4.45373429 -12 7 C-11.72776186 3.64239623 -11.41629629 2.35682539 -8.8125 0.125 C-5.41866747 -1.23253301 -3.49402134 -0.89381941 0 0 Z " fill="#31312C" transform="translate(312,179)"/>
<path d="M0 0 C4.43458973 1.3937282 6.87378374 3.60582235 10 7 C9.01 7.33 8.02 7.66 7 8 C7 7.01 7 6.02 7 5 C6.01 5.33 5.02 5.66 4 6 C3.01 5.67 2.02 5.34 1 5 C0.67 3.35 0.34 1.7 0 0 Z " fill="#3E3E3B" transform="translate(203,166)"/>
<path d="M0 0 C7.35174806 -0.55253221 12.511583 0.48935892 19 4 C17.02 4.99 17.02 4.99 15 6 C14.67 5.01 14.34 4.02 14 3 C13.01 3.33 12.02 3.66 11 4 C11 3.34 11 2.68 11 2 C7.37 1.67 3.74 1.34 0 1 C0 0.67 0 0.34 0 0 Z " fill="#5D5C59" transform="translate(183,161)"/>
<path d="M0 0 C2.9555377 2.75170751 5.11563315 5.41970299 7 9 C7 9.66 7 10.32 7 11 C4.525 10.01 4.525 10.01 2 9 C2 7.35 2 5.7 2 4 C1.34 4 0.68 4 0 4 C0 2.68 0 1.36 0 0 Z " fill="#C4A05F" transform="translate(283,70)"/>
<path d="M0 0 C0.66 0 1.32 0 2 0 C2 0.66 2 1.32 2 2 C1.34 2 0.68 2 0 2 C0.33 6.29 0.66 10.58 1 15 C-2 12 -2 12 -2.36328125 9.58984375 C-2.34652344 8.71457031 -2.32976562 7.83929688 -2.3125 6.9375 C-2.30863281 6.05964844 -2.30476562 5.18179687 -2.30078125 4.27734375 C-2 2 -2 2 0 0 Z " fill="#120702" transform="translate(206,341)"/>
<path d="M0 0 C3.62528568 -0.20140476 5.86501708 0.14223235 9 2 C9 2.66 9 3.32 9 4 C9.66 4.33 10.32 4.66 11 5 C7.53058454 4.54177532 4.32604951 4.10868317 1 3 C0.67 2.01 0.34 1.02 0 0 Z " fill="#2B2B27" transform="translate(131,291)"/>
<path d="M0 0 C1.65 0.99 3.3 1.98 5 3 C4.38125 3.28875 3.7625 3.5775 3.125 3.875 C0.86674235 4.93720042 0.86674235 4.93720042 -1 7 C-3.125 6.625 -3.125 6.625 -5 6 C-5 5.34 -5 4.68 -5 4 C-4.01 4 -3.02 4 -2 4 C-2 3.34 -2 2.68 -2 2 C-1.34 2 -0.68 2 0 2 C0 1.34 0 0.68 0 0 Z " fill="#282B26" transform="translate(190,248)"/>
<path d="M0 0 C1.65 0 3.3 0 5 0 C4.67 2.31 4.34 4.62 4 7 C4.66 7.33 5.32 7.66 6 8 C5.34 8.66 4.68 9.32 4 10 C0 3.375 0 3.375 0 0 Z " fill="#464742" transform="translate(88,249)"/>
<path d="M0 0 C0.99 0.33 1.98 0.66 3 1 C2.67 1.99 2.34 2.98 2 4 C2.99 4 3.98 4 5 4 C5.66 5.32 6.32 6.64 7 8 C4.6875 7.8125 4.6875 7.8125 2 7 C0.125 4.5625 0.125 4.5625 -1 2 C-0.67 1.34 -0.34 0.68 0 0 Z " fill="#2D2D29" transform="translate(107,273)"/>
<path d="M0 0 C0.66 0 1.32 0 2 0 C1.65120368 3.25543229 0.97866739 4.01873107 -1.5625 6.25 C-2.366875 6.8275 -3.17125 7.405 -4 8 C-4 6.02 -4 4.04 -4 2 C-2.68 2 -1.36 2 0 2 C0 1.34 0 0.68 0 0 Z " fill="#2B2A28" transform="translate(265,426)"/>
<path d="M0 0 C0.99 0 1.98 0 3 0 C6.07692308 5.41538462 6.07692308 5.41538462 5.6875 8.375 C5.460625 8.91125 5.23375 9.4475 5 10 C5 9.01 5 8.02 5 7 C4.01 6.67 3.02 6.34 2 6 C1.34 5.34 0.68 4.68 0 4 C0 2.68 0 1.36 0 0 Z " fill="#C39A56" transform="translate(290,85)"/>
<path d="M0 0 C0.6875 1.8125 0.6875 1.8125 1 4 C-0.3125 5.5 -0.3125 5.5 -2 7 C-3.17574711 9.09989652 -3.17574711 9.09989652 -4 11 C-4.66 10.67 -5.32 10.34 -6 10 C-4.6302836 6.00499382 -2.74277578 3.19990508 0 0 Z " fill="#C3A264" transform="translate(238,51)"/>
<path d="M0 0 C2.125 0.375 2.125 0.375 4 1 C4.33 2.32 4.66 3.64 5 5 C4.34 5 3.68 5 3 5 C2.34 4.34 1.68 3.68 1 3 C0.01 3.495 0.01 3.495 -1 4 C-1.33 4.99 -1.66 5.98 -2 7 C-2.66 7 -3.32 7 -4 7 C-2.92598892 4.08482708 -2.22189824 2.22189824 0 0 Z " fill="#C7A976" transform="translate(253,28)"/>
<path d="M0 0 C1.75 0.125 1.75 0.125 4 1 C6.25 4.0625 6.25 4.0625 8 7 C7.01 7 6.02 7 5 7 C0 1.53488372 0 1.53488372 0 0 Z " fill="#30302B" transform="translate(211,241)"/>
<path d="M0 0 C1.125 3.75 1.125 3.75 0 6 C0.39938767 8.09821215 0.39938767 8.09821215 1 10 C-0.65 8.35 -2.3 6.7 -4 5 C-3.67 4.01 -3.34 3.02 -3 2 C-2.01 2 -1.02 2 0 2 C0 1.34 0 0.68 0 0 Z " fill="#40403D" transform="translate(237,414)"/>
<path d="M0 0 C3 3.75 3 3.75 3 6 C3.66 6 4.32 6 5 6 C5.625 7.875 5.625 7.875 6 10 C5.34 10.66 4.68 11.32 4 12 C3.32645501 10.56570999 2.66140299 9.12742943 2 7.6875 C1.62875 6.88699219 1.2575 6.08648437 0.875 5.26171875 C0 3 0 3 0 0 Z " fill="#42413F" transform="translate(193,360)"/>
<path d="M0 0 C1.485 0.99 1.485 0.99 3 2 C2.67 4.64 2.34 7.28 2 10 C0.4375 8.9375 0.4375 8.9375 -1 7 C-0.6875 3.3125 -0.6875 3.3125 0 0 Z " fill="#3D3D3A" transform="translate(142,332)"/>
<path d="M0 0 C0.99 0.495 0.99 0.495 2 1 C2.6328125 3.06640625 2.6328125 3.06640625 3.125 5.5625 C3.29257812 6.38878906 3.46015625 7.21507812 3.6328125 8.06640625 C3.75398438 8.70449219 3.87515625 9.34257812 4 10 C3.01 10.495 3.01 10.495 2 11 C0.19769832 7.17010894 -0.19622241 4.21878192 0 0 Z " fill="#1C0D05" transform="translate(292,298)"/>
<path d="M0 0 C0.99 0.99 1.98 1.98 3 3 C0.36 4.65 -2.28 6.3 -5 8 C-4.67 6.68 -4.34 5.36 -4 4 C-2.68 3.67 -1.36 3.34 0 3 C0 2.01 0 1.02 0 0 Z " fill="#45463D" transform="translate(391,281)"/>
<path d="M0 0 C0.66 0.33 1.32 0.66 2 1 C-2.75 5.875 -2.75 5.875 -5 7 C-5.66 6.34 -6.32 5.68 -7 5 C-4.69 3.35 -2.38 1.7 0 0 Z " fill="#3F3F39" transform="translate(330,240)"/>
<path d="M0 0 C0.66 0.33 1.32 0.66 2 1 C0.75 3.5 0.75 3.5 -1 6 C-2.32 6 -3.64 6 -5 6 C-3.63016497 2.83884224 -3.0109362 2.0072908 0 0 Z " fill="#4A4A47" transform="translate(91,216)"/>
<path d="M0 0 C2.97 0.33 5.94 0.66 9 1 C7.68 2.32 6.36 3.64 5 5 C1.125 2.25 1.125 2.25 0 0 Z " fill="#41423D" transform="translate(123,216)"/>
<path d="M0 0 C0.66 0.99 1.32 1.98 2 3 C1.01 4.98 0.02 6.96 -1 9 C-1.99 8.67 -2.98 8.34 -4 8 C-2.87548273 5.0280615 -1.77706209 2.66559313 0 0 Z " fill="#CBA665" transform="translate(229,63)"/>
<path d="M0 0 C3.36591866 1.44253657 5.51047079 3.33264727 8 6 C4.62537285 5.45276317 2.91765 4.9451 0 3 C0 2.01 0 1.02 0 0 Z " fill="#200E05" transform="translate(211,314)"/>
<path d="M0 0 C0.88336837 2.4667645 1.1312406 3.63859372 0.22265625 6.140625 C-0.16019531 6.83671875 -0.54304687 7.5328125 -0.9375 8.25 C-1.31777344 8.95640625 -1.69804687 9.6628125 -2.08984375 10.390625 C-2.39019531 10.92171875 -2.69054687 11.4528125 -3 12 C-3.33 12 -3.66 12 -4 12 C-3.5317879 7.22423661 -2.75668002 3.95523655 0 0 Z " fill="#251105" transform="translate(217,296)"/>
<path d="M0 0 C0.66 0.33 1.32 0.66 2 1 C2 5 2 5 1 7 C-0.32 5.35 -1.64 3.7 -3 2 C-2.01 1.34 -1.02 0.68 0 0 Z " fill="#43443E" transform="translate(101,266)"/>
<path d="M0 0 C2.31 0.33 4.62 0.66 7 1 C7 1.99 7 2.98 7 4 C4 4 4 4 1.8125 2 C1.214375 1.34 0.61625 0.68 0 0 Z " fill="#C7A05F" transform="translate(222,142)"/>
<path d="M0 0 C0.66 0 1.32 0 2 0 C0.50902342 3.7952131 -1.75700849 5.61042731 -5 8 C-5 7.01 -5 6.02 -5 5 C-4.01 4.67 -3.02 4.34 -2 4 C-0.79117904 1.99983534 -0.79117904 1.99983534 0 0 Z " fill="#BC9A5B" transform="translate(289,136)"/>
<path d="M0 0 C1 3 1 3 -0.25 5.625 C-2 8 -2 8 -5 9 C-3.7508258 5.54074837 -2.32472205 2.85306797 0 0 Z " fill="#2F1809" transform="translate(272,401)"/>
<path d="M0 0 C-0.33 0.99 -0.66 1.98 -1 3 C-5.75 4.125 -5.75 4.125 -8 3 C-4.93882432 0.37613513 -4.26826873 0 0 0 Z " fill="#252621" transform="translate(312,255)"/>
<path d="M0 0 C0.99 0 1.98 0 3 0 C2.46930939 3.82097239 1.50298434 6.06171403 -1 9 C-0.67 6.03 -0.34 3.06 0 0 Z " fill="#CDA465" transform="translate(294,125)"/>
<path d="M0 0 C1.1875 1.625 1.1875 1.625 2 4 C0.625 7.25 0.625 7.25 -1 10 C-2.46726798 6.18510326 -1.43336419 3.70988378 0 0 Z " fill="#C59748" transform="translate(231,61)"/>
<path d="M0 0 C4.5 3 4.5 3 9 6 C6.1875 6.25 6.1875 6.25 3 6 C1.125 4.125 1.125 4.125 0 2 C0 1.34 0 0.68 0 0 Z " fill="#351E0A" transform="translate(213,368)"/>
<path d="M0 0 C0.66 0 1.32 0 2 0 C0.75023244 3.65316671 0.32901247 4.78065836 -3 7 C-3.33 5.68 -3.66 4.36 -4 3 C-2.68 3 -1.36 3 0 3 C0 2.01 0 1.02 0 0 Z " fill="#363633" transform="translate(295,239)"/>
<path d="M0 0 C-0.8125 1.9375 -0.8125 1.9375 -2 4 C-2.99 4.33 -3.98 4.66 -5 5 C-5.66 4.34 -6.32 3.68 -7 3 C-2.25 0 -2.25 0 0 0 Z " fill="#41413D" transform="translate(356,226)"/>
<path d="M0 0 C0.33 0 0.66 0 1 0 C1.36923077 6.52307692 1.36923077 6.52307692 -0.5 8.9375 C-0.995 9.288125 -1.49 9.63875 -2 10 C-2.99 9.67 -3.98 9.34 -5 9 C-4.34 9 -3.68 9 -3 9 C-3 8.01 -3 7.02 -3 6 C-2.01 6 -1.02 6 0 6 C0 4.02 0 2.04 0 0 Z " fill="#53524E" transform="translate(328,167)"/>
<path d="M0 0 C0.33 0.66 0.66 1.32 1 2 C3.01669827 3.13350534 3.01669827 3.13350534 5 4 C4.67 5.32 4.34 6.64 4 8 C1.10067643 5.60490662 0.49831724 3.68754757 0 0 Z " fill="#C8A363" transform="translate(211,126)"/>
<path d="M0 0 C0.33 0 0.66 0 1 0 C1.25 2.8125 1.25 2.8125 1 6 C-1 7.875 -1 7.875 -3 9 C-2.01 6.03 -1.02 3.06 0 0 Z " fill="#351E0B" transform="translate(297,360)"/>
<path d="M0 0 C2.1640625 0.0234375 2.1640625 0.0234375 4.625 0.375 C5.85089844 0.54128906 5.85089844 0.54128906 7.1015625 0.7109375 C7.72804687 0.80632812 8.35453125 0.90171875 9 1 C5.01647791 3.30903272 2.49885947 2.86516528 -2 2 C-1.34 1.34 -0.68 0.68 0 0 Z " fill="#AD8549" transform="translate(226,349)"/>
<path d="M0 0 C0 0.66 0 1.32 0 2 C-5.41538462 3.23076923 -5.41538462 3.23076923 -8.375 2.0625 C-8.91125 1.711875 -9.4475 1.36125 -10 1 C-6.61981469 -0.04005702 -3.5219721 -0.08004482 0 0 Z " fill="#2A1604" transform="translate(281,322)"/>
<path d="M0 0 C0.33 0.66 0.66 1.32 1 2 C1.66 2.33 2.32 2.66 3 3 C0.6875 3.625 0.6875 3.625 -2 4 C-2.99 3.34 -3.98 2.68 -5 2 C-3.35 1.34 -1.7 0.68 0 0 Z " fill="#2A2B2A" transform="translate(325,291)"/>
<path d="M0 0 C2.91517292 1.07401108 4.77810176 1.77810176 7 4 C5.35 4.33 3.7 4.66 2 5 C2 4.34 2 3.68 2 3 C1.34 3 0.68 3 0 3 C0 2.01 0 1.02 0 0 Z " fill="#474841" transform="translate(161,230)"/>
<path d="M0 0 C-0.33 2.31 -0.66 4.62 -1 7 C-1.33 6.34 -1.66 5.68 -2 5 C-2.66 5 -3.32 5 -4 5 C-3.625 3.0625 -3.625 3.0625 -3 1 C-1 0 -1 0 0 0 Z " fill="#BD8D3E" transform="translate(297,120)"/>
<path d="M0 0 C1 2 1 2 0.25 4.5625 C-1 7 -1 7 -4 8 C-2.87548273 5.0280615 -1.77706209 2.66559313 0 0 Z " fill="#D0B379" transform="translate(224,71)"/>
<path d="M0 0 C0.33 0.66 0.66 1.32 1 2 C-0.65 3.65 -2.3 5.3 -4 7 C-4 4 -4 4 -2 1.8125 C-1.34 1.214375 -0.68 0.61625 0 0 Z " fill="#C9A768" transform="translate(244,44)"/>
</svg>
